# xmcd
#
# Track frame offsets:
# 150
# 13161
# 31037
# 44136
# 57124
# 74465
# 89718
# 102636
# 114896
# 129672
# 145111
# 159670
# 173111
# 186384
# 199695
# 214777
# 230835
# 246104
# 260847
# 273652
#
# Disc length: 3783 seconds
#
#
# Revision: 0
# Processed by: cddbd v1.5.2PL0 Copyright (c) Steve Scherf et al.
# Submitted via: FreeRIP 2.945 
#
DISCID=380ec514
DTITLE=Trio Parada Dura - As 20 Mais
DYEAR=2005
DGENRE=Sertanejo
TTITLE0=Alguem viu ela por ai
TTITLE1=Luz da minha vida
TTITLE2=Sempre
TTITLE3=Pernilongo da vila
TTITLE4=Ultimo Adeus
TTITLE5=Telefone mudo
TTITLE6=No Embalo do arrasta pé
TTITLE7=Avião da nove
TTITLE8=Bebendo e chorando
TTITLE9=Toda noite eu dava uma
TTITLE10=Pra furar o couro
TTITLE11=Brinco de Ouro
TTITLE12=As andorinhas
TTITLE13=Boeiou a gente pimba
TTITLE14=Ino de Reis
TTITLE15=O carro e faculdade
TTITLE16=Blusa vermelha
TTITLE17=Senzala de preto velho
TTITLE18=Quem não sabe nadar
TTITLE19=O pinto do meu tio
EXTD=
EXTT0=
EXTT1=
EXTT2=
EXTT3=
EXTT4=
EXTT5=
EXTT6=
EXTT7=
EXTT8=
EXTT9=
EXTT10=
EXTT11=
EXTT12=
EXTT13=
EXTT14=
EXTT15=
EXTT16=
EXTT17=
EXTT18=
EXTT19=
PLAYORDER=
